<?xml version="1.0" encoding="utf-8"?>
<!-- Generator: Adobe Illustrator 23.1.0, SVG Export Plug-In . SVG Version: 6.00 Build 0)  -->
<svg version="1.1" id="Layer_1" xmlns="http://www.w3.org/2000/svg" xmlns:xlink="http://www.w3.org/1999/xlink" x="0px" y="0px"
	 viewBox="0 0 37.41 38" style="enable-background:new 0 0 37.41 38;" xml:space="preserve">
<style type="text/css">
	.st0{fill:#ED1C24;}
</style>
<g>
	<g>
		<path d="M11.42,15.97c-0.25-0.11-0.57-0.17-0.96-0.17H9.11v2.86h1.36c0.38,0,0.7-0.05,0.95-0.16c0.25-0.1,0.44-0.26,0.57-0.47
			c0.12-0.21,0.19-0.47,0.19-0.78c0-0.31-0.06-0.58-0.19-0.79S11.67,16.09,11.42,15.97z"/>
		<path d="M18.71,1.96c-9.39,0-17,7.61-17,17s7.61,17,17,17s17-7.61,17-17S28.09,1.96,18.71,1.96z M12.36,23.62l-1.79-3.35H9.11
			v3.35h-2v-9.45h3.73c0.71,0,1.32,0.13,1.83,0.38s0.89,0.61,1.16,1.08s0.4,1.01,0.4,1.63c0,0.63-0.14,1.17-0.41,1.62
			c-0.27,0.45-0.66,0.8-1.17,1.04c-0.03,0.01-0.06,0.02-0.09,0.03l2.01,3.68H12.36z M21.43,23.62h-6.39v-9.45h6.37v1.65h-4.37v2.25
			h4.04v1.65h-4.04v2.26h4.39V23.62z M30.31,23.62h-1.73l-4.11-5.95H24.4v5.95h-2v-9.45h1.75l4.08,5.94h0.08v-5.94h1.99V23.62z"/>
	</g>
	<path class="st0" d="M32.47,23.74c-0.3,0-0.57-0.11-0.78-0.33s-0.33-0.48-0.33-0.78c0-0.3,0.11-0.56,0.33-0.78
		c0.22-0.21,0.48-0.32,0.78-0.32c0.29,0,0.55,0.11,0.77,0.32c0.22,0.22,0.33,0.47,0.33,0.78c0,0.2-0.05,0.39-0.16,0.56
		c-0.1,0.17-0.24,0.3-0.4,0.4C32.85,23.69,32.67,23.74,32.47,23.74z"/>
</g>
</svg>
